<svg xmlns="http://www.w3.org/2000/svg" width="225.803" height="218.553" viewBox="0 0 225.803 218.553"><g transform="translate(0)"><path d="M7.632,3.816A3.816,3.816,0,1,1,3.816,0,3.827,3.827,0,0,1,7.632,3.816Z" fill="#e3e3e3"/><path d="M22.872,3.816A3.816,3.816,0,1,1,19.056,0,3.827,3.827,0,0,1,22.872,3.816Z" transform="translate(21.106)" fill="#e3e3e3"/><path d="M38.122,3.816A3.816,3.816,0,1,1,34.306,0,3.827,3.827,0,0,1,38.122,3.816Z" transform="translate(42.226)" fill="#e3e3e3"/><path d="M53.372,3.816A3.816,3.816,0,1,1,49.556,0,3.827,3.827,0,0,1,53.372,3.816Z" transform="translate(63.346)" fill="#e3e3e3"/><path d="M68.622,3.816A3.816,3.816,0,1,1,64.806,0,3.827,3.827,0,0,1,68.622,3.816Z" transform="translate(84.465)" fill="#e3e3e3"/><path d="M83.872,3.816A3.816,3.816,0,1,1,80.056,0,3.827,3.827,0,0,1,83.872,3.816Z" transform="translate(105.585)" fill="#e3e3e3"/><path d="M99.112,3.816A3.816,3.816,0,1,1,95.3,0,3.827,3.827,0,0,1,99.112,3.816Z" transform="translate(126.691)" fill="#e3e3e3"/></g><g transform="translate(0 35.153)"><circle cx="3.816" cy="3.816" r="3.816" fill="#e3e3e3"/><circle cx="3.816" cy="3.816" r="3.816" transform="translate(36.37)" fill="#e3e3e3"/><circle cx="3.816" cy="3.816" r="3.816" transform="translate(72.716)" fill="#e3e3e3"/><circle cx="3.816" cy="3.816" r="3.816" transform="translate(109.086)" fill="#e3e3e3"/><circle cx="3.816" cy="3.816" r="3.816" transform="translate(145.455)" fill="#e3e3e3"/><path d="M83.872,18.556a3.816,3.816,0,1,1-3.816-3.816A3.827,3.827,0,0,1,83.872,18.556Z" transform="translate(105.585 -14.74)" fill="#e3e3e3"/><path d="M99.112,18.556A3.816,3.816,0,1,1,95.3,14.74,3.827,3.827,0,0,1,99.112,18.556Z" transform="translate(126.691 -14.74)" fill="#e3e3e3"/></g><g transform="translate(0 70.307)"><path d="M7.632,33.3A3.816,3.816,0,1,1,3.816,29.48,3.827,3.827,0,0,1,7.632,33.3Z" transform="translate(0 -29.48)" fill="#e3e3e3"/><path d="M22.872,33.3a3.816,3.816,0,1,1-3.816-3.816A3.827,3.827,0,0,1,22.872,33.3Z" transform="translate(21.106 -29.48)" fill="#e3e3e3"/><path d="M38.122,33.3a3.816,3.816,0,1,1-3.816-3.816A3.827,3.827,0,0,1,38.122,33.3Z" transform="translate(42.226 -29.48)" fill="#e3e3e3"/><path d="M53.372,33.3a3.816,3.816,0,1,1-3.816-3.816A3.827,3.827,0,0,1,53.372,33.3Z" transform="translate(63.346 -29.48)" fill="#e3e3e3"/><path d="M68.622,33.3a3.816,3.816,0,1,1-3.816-3.816A3.827,3.827,0,0,1,68.622,33.3Z" transform="translate(84.465 -29.48)" fill="#e3e3e3"/><path d="M83.872,33.3a3.816,3.816,0,1,1-3.816-3.816A3.827,3.827,0,0,1,83.872,33.3Z" transform="translate(105.585 -29.48)" fill="#e3e3e3"/><path d="M99.112,33.3A3.816,3.816,0,1,1,95.3,29.48,3.827,3.827,0,0,1,99.112,33.3Z" transform="translate(126.691 -29.48)" fill="#e3e3e3"/></g><g transform="translate(0 105.46)"><circle cx="3.816" cy="3.816" r="3.816" fill="#e3e3e3"/><circle cx="3.816" cy="3.816" r="3.816" transform="translate(36.37)" fill="#e3e3e3"/><circle cx="3.816" cy="3.816" r="3.816" transform="translate(72.716)" fill="#e3e3e3"/><circle cx="3.816" cy="3.816" r="3.816" transform="translate(109.086)" fill="#e3e3e3"/><circle cx="3.816" cy="3.816" r="3.816" transform="translate(145.455)" fill="#e3e3e3"/><path d="M83.872,48.036a3.816,3.816,0,1,1-3.816-3.816A3.827,3.827,0,0,1,83.872,48.036Z" transform="translate(105.585 -44.22)" fill="#e3e3e3"/><path d="M99.112,48.036A3.816,3.816,0,1,1,95.3,44.22,3.827,3.827,0,0,1,99.112,48.036Z" transform="translate(126.691 -44.22)" fill="#e3e3e3"/></g><g transform="translate(0 140.614)"><path d="M7.632,62.776A3.816,3.816,0,1,1,3.816,58.96,3.827,3.827,0,0,1,7.632,62.776Z" transform="translate(0 -58.96)" fill="#e3e3e3"/><path d="M22.872,62.776a3.816,3.816,0,1,1-3.816-3.816A3.827,3.827,0,0,1,22.872,62.776Z" transform="translate(21.106 -58.96)" fill="#e3e3e3"/><path d="M38.122,62.776a3.816,3.816,0,1,1-3.816-3.816A3.827,3.827,0,0,1,38.122,62.776Z" transform="translate(42.226 -58.96)" fill="#e3e3e3"/><path d="M53.372,62.776a3.816,3.816,0,1,1-3.816-3.816A3.827,3.827,0,0,1,53.372,62.776Z" transform="translate(63.346 -58.96)" fill="#e3e3e3"/><path d="M68.622,62.776a3.816,3.816,0,1,1-3.816-3.816A3.827,3.827,0,0,1,68.622,62.776Z" transform="translate(84.465 -58.96)" fill="#e3e3e3"/><path d="M83.872,62.776a3.816,3.816,0,1,1-3.816-3.816A3.827,3.827,0,0,1,83.872,62.776Z" transform="translate(105.585 -58.96)" fill="#e3e3e3"/><path d="M99.112,62.776A3.816,3.816,0,1,1,95.3,58.96,3.827,3.827,0,0,1,99.112,62.776Z" transform="translate(126.691 -58.96)" fill="#e3e3e3"/></g><g transform="translate(0 175.767)"><path d="M7.632,77.516A3.816,3.816,0,1,1,3.816,73.7,3.827,3.827,0,0,1,7.632,77.516Z" transform="translate(0 -73.7)" fill="#e3e3e3"/><path d="M22.872,77.516A3.816,3.816,0,1,1,19.056,73.7,3.827,3.827,0,0,1,22.872,77.516Z" transform="translate(21.106 -73.7)" fill="#e3e3e3"/><path d="M38.122,77.516A3.816,3.816,0,1,1,34.306,73.7,3.827,3.827,0,0,1,38.122,77.516Z" transform="translate(42.226 -73.7)" fill="#e3e3e3"/><path d="M53.372,77.516A3.816,3.816,0,1,1,49.556,73.7,3.827,3.827,0,0,1,53.372,77.516Z" transform="translate(63.346 -73.7)" fill="#e3e3e3"/><path d="M68.622,77.516A3.816,3.816,0,1,1,64.806,73.7,3.827,3.827,0,0,1,68.622,77.516Z" transform="translate(84.465 -73.7)" fill="#e3e3e3"/><path d="M83.872,77.516A3.816,3.816,0,1,1,80.056,73.7,3.827,3.827,0,0,1,83.872,77.516Z" transform="translate(105.585 -73.7)" fill="#e3e3e3"/><path d="M99.112,77.516A3.816,3.816,0,1,1,95.3,73.7,3.827,3.827,0,0,1,99.112,77.516Z" transform="translate(126.691 -73.7)" fill="#e3e3e3"/></g><g transform="translate(0 210.921)"><path d="M7.632,92.256A3.816,3.816,0,1,1,3.816,88.44,3.827,3.827,0,0,1,7.632,92.256Z" transform="translate(0 -88.44)" fill="#e3e3e3"/><path d="M22.872,92.256a3.816,3.816,0,1,1-3.816-3.816A3.827,3.827,0,0,1,22.872,92.256Z" transform="translate(21.106 -88.44)" fill="#e3e3e3"/><path d="M38.122,92.256a3.816,3.816,0,1,1-3.816-3.816A3.827,3.827,0,0,1,38.122,92.256Z" transform="translate(42.226 -88.44)" fill="#e3e3e3"/><path d="M53.372,92.256a3.816,3.816,0,1,1-3.816-3.816A3.827,3.827,0,0,1,53.372,92.256Z" transform="translate(63.346 -88.44)" fill="#e3e3e3"/><path d="M68.622,92.256a3.816,3.816,0,1,1-3.816-3.816A3.827,3.827,0,0,1,68.622,92.256Z" transform="translate(84.465 -88.44)" fill="#e3e3e3"/><path d="M83.872,92.256a3.816,3.816,0,1,1-3.816-3.816A3.827,3.827,0,0,1,83.872,92.256Z" transform="translate(105.585 -88.44)" fill="#e3e3e3"/><path d="M99.112,92.256A3.816,3.816,0,1,1,95.3,88.44,3.827,3.827,0,0,1,99.112,92.256Z" transform="translate(126.691 -88.44)" fill="#e3e3e3"/></g></svg>