<svg xmlns="http://www.w3.org/2000/svg" width="1174.866" height="1149.609" viewBox="0 0 1174.866 1149.609"><path d="M851.723,994.3c124.2-18.544,129.407-117.525,89.964-172.569-55.881-77.988-106.881-65.285-28.955-193.747,26.461-43.611,36.639-99.306,16.592-147.456-14.423-34.641-44.23-63.038-80.235-73.589-20.031-5.872-41.209-6.29-61.721-10.163s-41.581-12.177-53.541-29.28c-11.511-16.484-12.487-38.158-9.714-58.081,6.646-47.887,32.828-91.73,35.167-140.36,1.968-40.993-11.588-88.043-40.528-117.865C680.858,12.146,621.988,3.749,570.212.744,509.5-2.773,448.288,6.321,390.548,25.159,316.588,49.3,248.282,89.127,187.49,137.68,133.376,180.9,84.466,231.718,49.841,291.7-4.924,386.564-36.621,541.239,74.954,609.126c134.334,81.737,220.982-59.971,228.279,79.46,4.369,83.426,64.123,213.887,227.086,148.9C693.3,772.493,672.864,1020.989,851.723,994.3Z" transform="translate(200.326 1149.604) rotate(-102)" fill="#f6f6f6"/></svg>