<svg xmlns="http://www.w3.org/2000/svg" width="1042.236" height="1077.706" viewBox="0 0 1042.236 1077.706"><path d="M921.306,1075.527c134.349-20.059,139.979-127.126,97.314-186.667C958.174,804.5,903.007,818.242,987.3,679.284c28.623-47.174,39.633-107.419,17.948-159.5-15.6-37.471-47.844-68.188-86.789-79.6-21.668-6.351-44.576-6.8-66.764-10.993s-44.978-13.172-57.916-31.673c-12.451-17.831-13.507-41.275-10.507-62.826,7.189-51.8,35.51-99.224,38.041-151.827,2.128-44.342-12.535-95.236-43.839-127.495C736.483,13.138,672.8,4.055,616.8.8,551.123-3,484.912,6.837,422.455,27.215c-80,26.109-153.888,69.194-219.647,121.713C144.272,195.683,91.367,250.649,53.913,315.536-5.326,418.145-39.613,585.457,81.078,658.89c145.308,88.415,239.036-64.87,246.929,85.952C332.733,835.083,397.368,976.2,573.645,905.9,749.939,835.6,727.835,1104.4,921.306,1075.527Z" transform="translate(0.004 0)" fill="#f5f5f5"/></svg>